<svg width="1920" height="1080" viewBox="0 0 1920 1080" fill="none" xmlns="http://www.w3.org/2000/svg">
<g clip-path="url(#clip0_637_27)">
<rect width="1920" height="1080" fill="black"/>
<path d="M81.3158 386C292.895 386 435 243.08 435 33.4639V-849.464C435 -1059.08 292.895 -1202 81.3158 -1202H-45V386H81.3158Z" stroke="#223A76" stroke-width="55"/>
<path d="M562.895 386C777.118 386 921 243.08 921 33.4639V-849.464C921 -1059.08 777.118 -1202 562.895 -1202H435V386H562.895Z" stroke="#223A76" stroke-width="55"/>
<path d="M81.3156 2460C292.895 2460 435 2317.08 435 2107.46L435 1224.54C435 1014.92 292.895 872 81.3159 872L-45 872L-45.0003 2460L81.3156 2460Z" stroke="#223A76" stroke-width="55"/>
<path d="M562.895 2460C777.118 2460 921 2317.08 921 2107.46L921 1224.54C921 1014.92 777.119 872 562.895 872L435 872L435 2460L562.895 2460Z" stroke="#223A76" stroke-width="55"/>
<ellipse cx="1645.5" cy="141" rx="244.5" ry="245" stroke="#223A76" stroke-width="55"/>
<path d="M1047.32 386C1258.89 386 1401 243.08 1401 33.4639V-849.464C1401 -1059.08 1258.89 -1202 1047.32 -1202H921V386H1047.32Z" stroke="#223A76" stroke-width="55"/>
<path d="M2509 744.105C2509 529.882 2366.08 386 2156.46 386L1273.54 386C1063.92 386 921 529.882 921 744.105L921 872L2509 872L2509 744.105Z" stroke="#223A76" stroke-width="55"/>
<path d="M2509 1230.11C2509 1015.88 2366.08 872 2156.46 872L1273.54 872C1063.92 872 921 1015.88 921 1230.11L921 1358L2509 1358L2509 1230.11Z" stroke="#223A76" stroke-width="55"/>
<ellipse cx="676" cy="630.5" rx="245" ry="244.5" stroke="#223A76" stroke-width="55"/>
<circle cx="186.5" cy="630.5" r="244.5" stroke="#223A76" stroke-width="55"/>
<path d="M81.1013 166.448C92.6107 180.453 110.915 189.051 133.24 189.051C162.499 189.051 182.883 173.936 182.883 151.056C182.883 108.069 112.579 119.856 112.579 103.355C112.579 97.6693 121.037 93.9253 132.269 93.9253C143.917 93.9253 154.595 97.9467 163.885 106.96L182.744 88.24C171.512 74.3733 153.624 66.3307 131.853 66.3307C102.456 66.3307 82.488 81.3067 82.488 104.741C82.488 148.699 152.792 137.189 152.792 152.443C152.792 157.851 143.917 161.595 133.24 161.595C121.037 161.595 109.251 157.019 100.515 148.144L81.1013 166.448ZM226.364 187.941C236.764 187.941 244.807 184.613 250.631 177.957H251.324L254.652 186H279.751V138.715C279.751 114.448 266.993 100.027 240.369 100.027C225.255 100.027 212.22 104.741 202.236 111.952L214.3 129.701C219.708 125.957 228.167 122.352 236.487 122.352C244.807 122.352 252.156 125.957 252.156 136.08V143.429L251.463 143.707C246.055 139.131 237.041 136.773 228.028 136.773C208.753 136.773 196.967 147.589 196.967 162.565C196.967 177.541 208.615 187.941 226.364 187.941ZM238.567 170.885C232.049 170.885 227.612 167.696 227.612 162.288C227.612 156.88 232.188 153.829 238.983 153.829C243.836 153.829 248.828 155.216 251.463 158.405V165.339C248.689 169.083 243.42 170.885 238.567 170.885ZM296.879 186H324.473V167.141L334.873 156.603H335.289L343.609 172.965C349.156 183.504 356.505 187.803 369.679 186.693L377.167 186V163.12H371.759C368.015 163.12 365.38 161.595 363.716 158.683L352.068 139.547L362.329 129.285C365.519 126.096 368.153 125.68 372.452 125.68H376.889V102.8L368.015 102.107C356.783 101.413 353.316 103.771 344.441 112.923L324.751 134.139H324.473V61.2H296.879V186ZM390.925 186H418.52V134.139C422.957 129.285 427.117 127.067 433.08 127.067C440.013 127.067 446.808 130.395 446.808 143.984V186H474.541V139.408C474.541 113.339 459.427 100.443 442.232 100.443C432.941 100.443 425.315 104.187 419.629 110.981L419.075 110.843V61.2H390.925V186ZM519.27 187.941C529.67 187.941 537.713 184.613 543.537 177.957H544.23L547.558 186H572.657V138.715C572.657 114.448 559.899 100.027 533.275 100.027C518.161 100.027 505.126 104.741 495.142 111.952L507.206 129.701C512.614 125.957 521.073 122.352 529.393 122.352C537.713 122.352 545.062 125.957 545.062 136.08V143.429L544.369 143.707C538.961 139.131 529.947 136.773 520.934 136.773C501.659 136.773 489.873 147.589 489.873 162.565C489.873 177.541 501.521 187.941 519.27 187.941ZM531.473 170.885C524.955 170.885 520.518 167.696 520.518 162.288C520.518 156.88 525.094 153.829 531.889 153.829C536.742 153.829 541.734 155.216 544.369 158.405V165.339C541.595 169.083 536.326 170.885 531.473 170.885ZM644.419 100.443C627.918 100.443 618.627 103.493 612.11 110.565H611.555L609.337 102.8H589.785V186H617.379V134.139C621.817 129.563 627.641 127.067 638.595 127.067H644.419V100.443ZM697.455 188.219C722.97 188.219 741.967 169.915 741.967 144.4C741.967 118.885 722.97 100.581 697.455 100.581C671.802 100.581 652.943 118.885 652.943 144.4C652.943 169.915 671.802 188.219 697.455 188.219ZM697.455 162.565C688.164 162.565 680.815 154.8 680.815 144.4C680.815 134 688.164 126.235 697.455 126.235C706.607 126.235 713.956 134 713.956 144.4C713.956 154.8 706.607 162.565 697.455 162.565ZM784.719 186H812.314L848.09 102.8H819.109L799.418 153.413H798.725L778.895 102.8H748.943L784.719 186Z" fill="#F2F2F2"/>
<path d="M1710.7 983.858C1710.7 991.11 1691.29 986.308 1691.29 1002.28C1691.29 1015.61 1704.72 1021 1728.93 1021H1737.06V995.52H1731.08C1724.81 995.52 1720.4 993.266 1720.4 989.542C1720.4 982.094 1738.04 986.21 1738.04 971.118C1738.04 961.22 1730.4 950.636 1709.13 950.636C1701.98 950.636 1695.7 951.812 1689.43 955.536L1683.06 979.35H1681.1V952.4H1653.66V1021H1683.06V998.754C1683.06 983.956 1690.61 978.566 1700.8 978.566C1707.17 978.566 1710.7 980.722 1710.7 983.858ZM1746.2 984.25C1742.96 989.052 1740.61 994.638 1740.61 1000.71C1740.61 1017.08 1758.05 1023.94 1773.54 1023.94C1795.78 1023.94 1811.27 1009.83 1811.27 987.19H1783.73C1783.53 992.384 1781.57 997.48 1775.69 997.48C1771.58 997.48 1767.95 995.03 1767.95 989.248C1767.95 982.682 1772.75 978.86 1780.4 978.86H1809.31V952.4H1778.24L1772.95 972H1770.99V942.6L1742.57 945.54V976.9H1769.32V978.86L1746.2 984.25Z" fill="#F2F2F2"/>
<path d="M84.1063 1021.32C80.4288 1021.32 77.8019 1023.97 77.8019 1027.69V1031.41H133.666V1021.32H84.1063ZM75 958.288C75 966.078 80.779 972.097 88.6594 972.097C96.5399 972.097 102.144 966.078 102.144 958.288C102.144 950.321 96.5399 944.656 88.6594 944.656C80.779 944.656 75 950.321 75 958.288ZM114.227 1014.06C125.96 1014.06 133.666 1006.27 133.666 994.405V962.537C133.666 950.852 125.96 942.885 114.227 942.885H101.618C106.639 946.191 109.149 950.852 109.149 956.872V1000.07C109.149 1006.09 106.639 1010.75 101.618 1014.06H114.227ZM184.1 1031.41C195.658 1031.41 203.539 1023.44 203.539 1011.75V962.537C203.539 950.852 195.658 942.885 184.1 942.885H176.92V1031.41H184.1ZM149.076 1031.41C160.809 1031.41 168.69 1023.44 168.69 1011.75V962.537C168.69 950.852 160.809 942.885 149.076 942.885H142.071V1031.41H149.076ZM296.12 955.632L301.549 967.317H290.691L296.12 955.632ZM335.289 973.337C328.284 973.337 323.206 968.379 323.206 961.298C323.206 954.039 328.284 949.082 335.289 949.082C342.119 949.082 347.022 954.039 347.022 961.298C347.022 968.379 342.119 973.337 335.289 973.337ZM335.289 942.708C325.132 942.708 317.077 950.852 317.077 961.298C317.077 971.389 325.132 979.887 335.289 979.887C345.271 979.887 353.152 971.389 353.152 961.298C353.152 950.852 345.271 942.708 335.289 942.708ZM288.415 972.805H303.65L306.102 978.117H312.581L296.12 942.885L279.659 978.117H285.963L288.415 972.805ZM270.435 1024.68H289.348V1019.54H270.435V1024.68ZM394.771 1014.41C394.771 1007.33 399.674 1002.37 406.679 1002.37C413.509 1002.37 418.412 1007.33 418.412 1014.41C418.412 1021.67 413.509 1026.63 406.679 1026.63C399.674 1026.63 394.771 1021.67 394.771 1014.41ZM363.6 1026.63C356.77 1026.63 351.691 1021.67 351.691 1014.41C351.691 1007.33 356.77 1002.37 363.6 1002.37C370.604 1002.37 375.508 1007.33 375.508 1014.41C375.508 1021.67 370.604 1026.63 363.6 1026.63ZM458.459 960.589C458.459 953.508 463.537 948.551 470.367 948.551C477.372 948.551 482.275 953.508 482.275 960.589C482.275 967.671 477.372 972.805 470.367 972.805C463.537 972.805 458.459 967.671 458.459 960.589ZM280.417 1010.87C277.265 1010.87 275.163 1008.75 275.163 1005.56C275.163 1002.55 277.265 1000.25 280.417 1000.25C283.569 1000.25 285.671 1002.55 285.671 1005.56C285.671 1008.75 283.394 1010.87 280.417 1010.87ZM535.046 943.062V972.274H521.912V943.062H515.958V972.274H502.824V943.062H497.045V978.294H541V943.062H535.046ZM280.417 995.29C274.988 995.29 270.085 1000.07 270.085 1005.56C270.085 1010.87 274.988 1015.83 280.417 1015.83C285.671 1015.83 290.749 1010.87 290.749 1005.56C290.749 1000.07 285.671 995.29 280.417 995.29ZM363.6 1033C373.757 1033 381.637 1024.68 381.637 1014.41C381.637 1004.14 373.757 995.821 363.6 995.821C353.618 995.821 345.387 1004.14 345.387 1014.41C345.387 1024.68 353.618 1033 363.6 1033ZM406.679 1033C416.661 1033 424.717 1024.68 424.717 1014.41C424.717 1004.14 416.661 995.821 406.679 995.821C396.522 995.821 388.467 1004.14 388.467 1014.41C388.467 1024.68 396.522 1033 406.679 1033ZM311.063 1031.23H338.032V1025.21H323.847L332.253 1016.18C334.88 1013.35 336.981 1010.52 336.981 1006.62C336.981 1001.31 332.778 995.467 324.548 995.467C316.142 995.467 311.238 1000.78 311.063 1008.21H317.017C317.368 1004.14 320.345 1001.49 324.372 1001.49C328.05 1001.49 330.502 1004.32 330.502 1006.97C330.502 1010.16 328.4 1012.46 325.773 1015.3L311.063 1031.23ZM258.177 995.998V1017.24L236.812 995.821V1031.23H242.766V1009.98L264.131 1031.41V995.998H258.177ZM445.733 947.134C442.405 943.947 438.027 942 433.299 942C423.142 942 415.087 950.498 415.087 960.589C415.087 970.858 423.142 979.179 433.299 979.179C438.027 979.179 442.405 977.232 445.733 974.045L441.18 969.796C439.253 971.566 436.451 972.805 433.299 972.805C426.294 972.805 421.216 967.671 421.216 960.589C421.216 953.508 426.294 948.551 433.299 948.551C436.451 948.551 439.253 949.79 441.18 951.383L445.733 947.134ZM488.404 960.589C488.404 950.498 480.524 942 470.367 942C460.385 942 452.154 950.498 452.154 960.589C452.154 970.858 460.385 979.179 470.367 979.179C480.524 979.179 488.404 970.858 488.404 960.589ZM370.606 967.494L365.002 978.117H371.481L390.394 943.062H383.915L374.108 960.944L364.827 943.062H358.172L370.606 967.494ZM236.812 942.885V978.117H242.766V955.455L254.849 966.609L267.108 955.455V978.117H272.887V942.885L254.849 958.819L236.812 942.885Z" fill="#F2F2F2"/>
<path d="M83.448 335H107.256V300.824H137.976V335H161.784V245.4H137.976V279.576H107.256V245.4H83.448V335ZM201.738 335H224.906V266.776H251.274V245.4H175.37V266.776H201.738V335ZM350.483 337.176C366.739 337.176 380.051 330.136 389.907 316.312L373.139 304.408C367.251 312.216 359.699 316.184 350.355 316.184C334.483 316.184 325.779 304.792 325.779 290.2C325.779 275.608 334.483 264.216 350.355 264.216C359.699 264.216 367.251 268.184 373.139 275.992L389.907 264.088C380.051 250.264 366.739 243.224 350.483 243.224C322.963 243.224 302.995 263.064 302.995 290.2C302.995 317.336 322.963 337.176 350.483 337.176ZM429.873 323.352C424.881 323.352 421.425 320.92 421.425 316.824C421.425 312.6 425.009 310.168 430.129 310.168C433.841 310.168 437.809 311.448 439.729 313.752V319.128C437.681 321.944 433.585 323.352 429.873 323.352ZM420.529 336.536C428.337 336.536 434.737 333.976 439.089 328.856H439.601L442.289 335H461.489V298.648C461.489 280.216 451.761 268.824 431.409 268.824C419.633 268.824 409.521 272.536 401.969 278.04L411.185 291.608C415.281 288.92 421.937 286.104 428.209 286.104C434.609 286.104 440.241 288.92 440.241 296.6V302.232L439.729 302.488C435.633 298.904 428.721 297.112 421.809 297.112C406.833 297.112 397.873 305.432 397.873 316.952C397.873 328.472 406.705 336.536 420.529 336.536ZM469.405 335.128H494.365L505.373 316.184H505.885L516.765 335.128H541.597L519.197 301.976L540.317 271H515.869L505.885 288.408H505.373L495.261 271H470.813L491.933 301.848L469.405 335.128ZM580.248 323.352C575.256 323.352 571.8 320.92 571.8 316.824C571.8 312.6 575.384 310.168 580.504 310.168C584.216 310.168 588.184 311.448 590.104 313.752V319.128C588.056 321.944 583.96 323.352 580.248 323.352ZM570.904 336.536C578.712 336.536 585.112 333.976 589.464 328.856H589.976L592.664 335H611.864V298.648C611.864 280.216 602.136 268.824 581.784 268.824C570.008 268.824 559.896 272.536 552.344 278.04L561.56 291.608C565.656 288.92 572.312 286.104 578.584 286.104C584.984 286.104 590.616 288.92 590.616 296.6V302.232L590.104 302.488C586.008 298.904 579.096 297.112 572.184 297.112C557.208 297.112 548.248 305.432 548.248 316.952C548.248 328.472 557.08 336.536 570.904 336.536ZM660.228 289.048C669.06 289.048 673.668 295.96 673.668 303C673.668 310.04 669.06 316.952 660.228 316.952C655.876 316.952 652.036 315.288 646.788 310.808V295.064C652.036 290.712 655.748 289.048 660.228 289.048ZM646.788 329.624L647.3 329.496C652.676 333.976 659.076 336.152 666.116 336.152C685.572 336.152 695.428 320.024 695.428 303.512C695.428 286.616 685.188 269.848 665.86 269.848C658.564 269.848 652.548 272.28 647.044 276.76H646.532L644.356 271H625.028V367H646.788V329.624ZM737.519 336.664C757.231 336.664 771.823 322.712 771.823 303C771.823 283.288 757.231 269.336 737.519 269.336C717.807 269.336 703.215 283.288 703.215 303C703.215 322.712 717.807 336.664 737.519 336.664ZM737.519 316.952C730.351 316.952 724.847 310.936 724.847 303C724.847 295.064 730.351 289.048 737.519 289.048C744.687 289.048 750.191 295.064 750.191 303C750.191 310.936 744.687 316.952 737.519 316.952ZM812.23 285.464C816.838 285.464 819.398 287.128 819.398 290.456C819.398 293.656 816.838 295.448 812.23 295.448H802.374V285.464H812.23ZM802.374 308.632H812.998C817.606 308.632 820.294 311.192 820.294 314.648C820.294 318.232 817.606 320.536 812.998 320.536H802.374V308.632ZM782.278 335H815.942C830.022 335 841.414 330.648 841.414 317.336C841.414 309.528 837.574 304.536 830.022 302.488C836.422 300.312 839.622 295.576 839.622 288.536C839.622 275.736 830.534 271 815.814 271H782.278V335Z" fill="white" fill-opacity="0.9"/>
</g>
<defs>
<clipPath id="clip0_637_27">
<rect width="1920" height="1080" fill="white"/>
</clipPath>
</defs>
</svg>
